# xmcd
#
# Track frame offsets:
#	150
#	19068
#	42416
#	56613
#	69840
#	92661
#	105305
#	118842
#	140155
#	154729
#	167213
#	181783
#	204681
#	221774
#	241484
#	253929
#	285490
#
# Disc length: 3823 seconds
#
# Revision: 0
# Processed by: cddbd v1.5.2PL0 Copyright (c) Steve Scherf et al.
# Submitted via: dBpowerAMP V4.0
#
DISCID=f90eed11
DTITLE=blues musicians - the definition of music: 'electric blues
DYEAR=1900
DGENRE=
TTITLE0=crossfire
TTITLE1=bad to the bone
TTITLE2=one bourbon, one scotch, one beer
TTITLE3=cross road blues
TTITLE4=the thrill is gone
TTITLE5=hey bartender
TTITLE6=born under a bad sign
TTITLE7=damn right, i got the blues
TTITLE8=manish boy
TTITLE9=boom boom
TTITLE10=before you accuse me
TTITLE11=sweet home chicago
TTITLE12=killing floor
TTITLE13=the scy is crying
TTITLE14=shake your money maker
TTITLE15=everyday i have the blues
TTITLE16=DATA
EXTD=The Definition Of Music: Electric Blues\nB.Carter, C.Layton, and R.Wynans
EXTT0=
EXTT1=
EXTT2=
EXTT3=
EXTT4=
EXTT5=
EXTT6=
EXTT7=
EXTT8=
EXTT9=
EXTT10=
EXTT11=
EXTT12=
EXTT13=
EXTT14=
EXTT15=
EXTT16=
PLAYORDER=
